<?xml version="1.0" encoding="utf-8"?>
<!-- Generator: Adobe Illustrator 21.0.0, SVG Export Plug-In . SVG Version: 6.00 Build 0)  -->
<svg version="1.1" id="Layer_1" xmlns="http://www.w3.org/2000/svg" xmlns:xlink="http://www.w3.org/1999/xlink" x="0px" y="0px"
	 width="1280px" height="800px" viewBox="0 0 1280 800" style="enable-background:new 0 0 1280 800;" xml:space="preserve">
<style type="text/css">
	.st0{fill:none;stroke:#000000;stroke-miterlimit:10;}
	.st1{fill:none;stroke:#000000;stroke-miterlimit:10;stroke-dasharray:11.6659,11.6659;}
	.st2{fill:none;stroke:#21409A;stroke-miterlimit:10;}
	.st3{font-family:'TimesNewRomanPSMT';}
	.st4{font-size:21px;}
	.st5{enable-background:new    ;}
	.st6{fill:none;stroke:#000000;stroke-width:0.75;stroke-miterlimit:10;}
	.st7{fill:none;stroke:#EC008C;stroke-miterlimit:10;}
	.st8{fill:none;stroke:#00A651;stroke-miterlimit:10;}
</style>
<rect x="233.4" y="95.7" class="st0" width="83.6" height="77.9"/>
<rect x="969.7" y="93.8" class="st0" width="83.6" height="77.9"/>
<rect x="334.6" y="91.2" class="st0" width="605.7" height="9.5"/>
<rect x="610.3" y="633" class="st0" width="58.9" height="58.9"/>
<g>
	<ellipse class="st1" cx="483" cy="355.1" rx="155.6" ry="106.9"/>
</g>
<polygon class="st2" points="639.8,662.5 334.6,96 940.3,96 "/>
<text transform="matrix(1 0 0 1 685.8838 685.2832)" class="st3 st4">Projecteur vidéo HD</text>
<text transform="matrix(1 0 0 1 690.4561 705.0859)" class="st3 st4">entrée HDMI</text>
<text transform="matrix(1 0 0 1 350.8838 719.2832)" class="st3 st4">micro-ordinateur</text>
<text transform="matrix(1 0 0 1 1084.124 482.5547)" class="st3 st4">Projecteur vidéo HD</text>
<text transform="matrix(1 0 0 1 1144.6953 505.3594)" class="st3 st4">entrée HDMI</text>
<text transform="matrix(1 0 0 1 1087.124 606.5547)" class="st3 st4">micro-ordinateur</text>
<text transform="matrix(1 0 0 1 33.3447 515.5703)" class="st3 st4">Projecteur vidéo HD</text>
<text transform="matrix(1 0 0 1 93.915 538.373)" class="st3 st4">entrée HDMI</text>
<text transform="matrix(1 0 0 1 275.543 82.5347)" class="st3 st4">Haut-parleur G</text>
<text transform="matrix(1 0 0 1 1027.7656 84.1177)" class="st3 st4">Haut-parleur D</text>
<text transform="matrix(1 0 0 1 464.5029 333.5264)" class="st3 st4">Zone </text>
<text transform="matrix(1 0 0 1 387.7803 356.3291)" class="st3 st4">Installation performance</text>
<text transform="matrix(1 0 0 1 221.29 333.5264)" class="st3 st4">HDMI</text>
<polyline class="st0" points="320.3,279.6 119.1,279.6 119.1,8.8 253.8,8.8 253.8,99.1 253.8,8.8 1013.9,8.8 1013.9,97.6 "/>
<text transform="matrix(1 0 0 1 209.6318 265.4346)" class="st3 st4">2x 1/4 mono</text>
<text transform="matrix(1 0 0 1 30.6318 707.4346)" class="st5"><tspan x="0" y="0" class="st3 st4">audio 1/8 </tspan><tspan x="0" y="25.2" class="st3 st4">stereo</tspan></text>
<text transform="matrix(1 0 0 1 203.3262 241.6812)" class="st3 st4">audio:</text>
<text transform="matrix(1 0 0 1 730.4785 387.3672)" class="st3 st4">LX</text>
<path class="st6" d="M737.4,378.2l-143.9-105l-153.2-21.4l-104.5,74.8l9.5,81.9l95,47.5l128.3,9.5
	C568.5,465.3,741,378.2,737.4,378.2z"/>
<rect x="39.6" y="406.9" class="st0" width="65.3" height="65.3"/>
<polygon class="st7" points="89.4,439.9 1082.8,134.7 1082.8,740.4 "/>
<rect x="1169.5" y="391.3" class="st0" width="65.3" height="65.3"/>
<polygon class="st8" points="1184.9,423.3 191.8,728.5 191.8,122.8 "/>
<polyline class="st0" points="312.2,342.8 67.6,342.8 67.6,409.3 "/>
<polyline class="st0" points="177.5,285.5 23.5,285.5 23.5,738.5 508.5,738.5 "/>
<rect x="129.5" y="257.5" class="st0" width="54" height="54"/>
<rect x="499.5" y="689.5" class="st0" width="54" height="54"/>
<rect x="1181.5" y="528.5" class="st0" width="54" height="54"/>
<path class="st0" d="M510.5,741.5"/>
<polyline class="st0" points="1209.2,556.8 1209,748.5 9.5,748.5 9.5,295.5 163.5,295.5 "/>
</svg>
